#!OML:ASF F:\VICON\USERDATA\INSTALL\rory3\rory3.ASF
:FULLY-SPECIFIED
:DEGREES
30
root -6.158893185729767 17.904533049223478 0.9417600298101888 -55.89125362227136 72.33445490667256 -75.80957554810156
lfemur -34.41081671848873 16.503041959380155 -6.895844807327039
ltibia 33.38648414027102
lfoot -4.178839340196676 1.3211805789763282
ltoes -21.53045898781361
rfemur -34.13893724669627 -0.31213239897307865 17.86174596482094
rtibia 28.267883453111764
rfoot -8.597320083692875 -9.624877357888018
rtoes -3.330306758414938
lowerback 3.47928191675154 -9.525954626695738 -4.60012807499929
upperback 4.3235503495032015 -12.677590204712438 3.2221047353103645
thorax 4.429819789801019 -6.653389918825914 6.029724108593472
lowerneck -11.557208161228813 12.365204445620865 4.11162479679782
upperneck 20.319150356274513 20.304482520602818 -14.14325556870789
head 10.098060969267285 8.559047763513968 -2.9009947963957448
lclavicle 1.2218339880316508e-14 -3.893863667279058e-15
lhumerus 83.62522364778874 -55.01318139854607 60.5965551299349
lradius 24.59162201771201
lwrist -0.7852685562313972
lhand -9.524432113375916 14.560215694217643
lfingers 7.12502
lthumb -163.56977336182499 82.37821609938655
rclavicle 1.221833988031651e-14 -3.893863667279058e-15
rhumerus 13.338460048331243 -18.089680944532766 -74.94614559941134
rradius 89.52682209673767
rwrist -29.5430403467937
rhand -65.01227577987609 20.574215042292934
rfingers 7.12502
rthumb -36.94188207820898 -6.3006003840639515
31
root -6.128639711825391 17.941816621571803 0.5463852587114278 -91.15490829981785 73.90586535440053 -110.45252732420813
lfemur -35.74181521931703 12.463733613553588 -10.203484211479559
ltibia 30.05748095387473
lfoot -3.9610141549283977 -3.8393963053900624
ltoes -19.165736275517396
rfemur -32.13661277896958 -2.2125174887180283 14.678107857288406
rtibia 29.593035700710512
rfoot -9.227254142037186 -18.00366659801024
rtoes -4.1483981255366515
lowerback 1.597728408629889 -9.479462837992697 -2.1616760880297545
upperback 4.7201387203773075 -12.520172696950258 4.995464230079156
thorax 5.74871135484788 -6.545858401062731 6.147996664704329
lowerneck -12.525055160963497 8.975720613679963 3.9150411524438926
upperneck 22.154137556203032 16.084050153977397 -14.488684345897887
head 10.39290372925877 6.505385813923744 -3.4297003890580884
lclavicle 1.1465617025595478e-14 -4.518429819277153e-15
lhumerus 71.97518785225145 -56.15386985330906 68.33346872376055
lradius 22.52988994855883
lwrist -1.3944791125708473
lhand -8.245826315242821 18.774696140440934
lfingers 7.12502
lthumb -162.34317610799872 75.36606930457043
rclavicle 1.146561702559548e-14 -4.518429819277153e-15
rhumerus 7.285553133687074 -15.21036172145931 -77.35931852369434
rradius 83.68664327660176
rwrist -36.570406121778376
rhand -64.47061876836888 17.989224523635475
rfingers 7.12502
rthumb -36.42508758157017 -8.948203394210436
32
root -6.060093616271927 17.99664124615471 0.18023174595215397 -126.2818510421261 72.062291927301 -144.06948718014937
lfemur -34.49499757698138 8.614710605344037 -13.34992855613671
ltibia 25.802720587980147
lfoot -3.2933156217680484 -9.881100003129458
ltoes -16.093857396790817
rfemur -28.405883495125053 -3.4128609018692493 11.466720330519975
rtibia 31.184556758719474
rfoot -9.373502753110134 -25.113215221050282
rtoes -1.2495015511782022
lowerback -0.8223480186737011 -8.988560021013772 0.27829302498715325
upperback 4.83202999601339 -11.94306995725655 6.906794130715587
thorax 7.115686155974912 -6.215583927563752 6.5163669006788805
lowerneck -13.035425916303264 5.1249740794084 3.002224727113651
upperneck 24.141836585879968 11.396865485117287 -14.67451294643152
head 10.505771632911477 4.257596880495795 -3.914644226518789
lclavicle 1.1585681259763186e-14 -4.420407903136129e-15
lhumerus 58.61670204919997 -56.193785208418745 77.06284952700899
lradius 21.178259908363277
lwrist -1.3486906745529872
lhand -6.066317283086658 24.54769199427178
lfingers 7.12502
lthumb -160.25470095673475 77.07100874493818
rclavicle 1.1585681259763186e-14 -4.42040790313613e-15
rhumerus 1.857241714278949 -10.490184939480471 -79.43772767582121
rradius 76.41457283399222
rwrist -45.1743276615748
rhand -62.454597286115124 13.969277719327007
rfingers 7.12502
rthumb -34.500071385500334 -13.105253191109789
33
root -5.97188550821048 18.0688686234591 -0.1588201184850574 -156.54134643263706 66.72600902178601 -172.05694792721198
lfemur -30.802428649287947 5.492218105492092 -16.455176681410475
ltibia 20.600913379342177
lfoot -2.0041028246224446 -16.62034948906777
ltoes -12.374752351770844
rfemur -23.912418991825298 -3.894628392294645 8.345959862014407
rtibia 33.100207493228375
rfoot -9.381055747028796 -30.678068817019714
rtoes 4.954242055002098
lowerback -3.517725519558854 -8.181140610347159 2.1639903019349402
upperback 4.597992684852833 -10.998632115073608 8.716688821801126
thorax 8.285556675912385 -5.642342280309362 7.139552120271745
lowerneck -12.903832087867041 0.8365338387373625 1.4095228249223042
upperneck 26.07225707157064 6.123880764636184 -14.728277253908889
head 10.41781065405225 1.7746209796064254 -4.322225639468851
lclavicle 1.1132218917883392e-14 -4.8019105364254676e-15
lhumerus 44.46613977007236 -55.66871943704604 85.16314388699358
lradius 19.790455261368855
lwrist -0.15494811787994145
lhand -2.6469598301120776 32.30692873299467
lfingers 7.12502
lthumb -156.9782800990656 69.40455615857604
rclavicle 1.113221891788339e-14 -4.8019105364254676e-15
rhumerus -3.179681162448901 -5.023268949422703 -82.190186469924
rradius 66.62094982050625
rwrist -54.671719441107825
rhand -58.30150800426433 7.828196926611229
rfingers 7.12502
rthumb -30.5289411026537 -19.51622374703021
34
root -5.871585787302587 18.1382998624984 -0.44945416427503526 -176.07230744851248 59.47892880610397 -188.88533560371718
lfemur -25.271314458060736 3.349745474876578 -19.169958250464283
ltibia 15.347953984779064
lfoot -0.21592934441259004 -22.68026171576102
ltoes -7.637726056642976
rfemur -18.78925826824471 -3.7726192348001617 5.746415868595335
rtibia 34.79592596830767
rfoot -8.029195988164364 -33.871791205881024
rtoes 11.836344849955669
lowerback -5.9875126870178175 -6.74089778217323 3.454700106463674
upperback 3.9503727862308713 -9.278240508655855 10.278151522206421
thorax 8.87317101268533 -4.6882408984998865 8.090931357138757
lowerneck -11.954074011174608 -3.6570394248765137 -0.5423415899057462
upperneck 27.66709099142003 0.431960364448427 -14.34709648981364
head 10.173323153458819 -0.8630820861435822 -4.519465120234239
lclavicle 1.0902080484240699e-14 -4.992306890664689e-15
lhumerus 31.7420923077406 -53.75604913094807 90.92582464141492
lradius 19.061427948997476
lwrist 3.704060305656734
lhand 1.3880057608452674 41.82197845022588
lfingers 7.12502
lthumb -153.11515280589182 69.91525262877555
rclavicle 1.0902080484240699e-14 -4.992306890664689e-15
rhumerus -5.090827866060401 0.2940803813728712 -85.37518236108235
rradius 54.68090888018534
rwrist -61.41707374813773
rhand -50.70804735692692 0.543847820767045
rfingers 7.12502
rthumb -23.24602408358161 -27.160260472891725
35
root -5.76272948309134 18.178996560827688 -0.7138348748992167 -183.08422137955858 52.62809640855961 -193.14349240252648
lfemur -19.44723528742575 1.855257803942711 -21.469596176762185
ltibia 11.305678120699035
lfoot 1.7058393305452881 -27.115876690869502
ltoes -1.9425469384847718
rfemur -13.430952431722044 -3.6993669210008417 3.8428178102488637
rtibia 35.89149367376172
rfoot -5.469155503267396 -35.04549052156878
rtoes 16.03143916452703
lowerback -7.769047321404828 -4.725901171515801 4.171538536385544
upperback 2.9909832992374907 -6.619502712406205 11.675931414414165
thorax 8.551206542684373 -3.2448394319888125 9.401776947988449
lowerneck -10.232880711884889 -8.324931958739276 -2.6553875459430656
upperneck 28.893444865761296 -5.768474342759443 -13.415552703878827
head 9.898712551326772 -3.6755191153854203 -4.431732398402993
lclavicle 1.0829024863319554e-14 -5.039241621745916e-15
lhumerus 22.254836263690628 -49.58136811033294 94.48538681861018
lradius 18.75941014931554
lwrist 11.353105903603984
lhand 4.557326755081366 51.77906416548804
lfingers 7.12502
lthumb -150.08208728820173 63.63916571128233
rclavicle 1.0829024863319554e-14 -5.0392416217459156e-15
rhumerus -3.237608576455969 4.980880596806861 -88.9881957690841
rradius 41.09104264143431
rwrist -61.96549749827668
rhand -39.14635761425051 -6.101366022287657
rfingers 7.12502
rthumb -12.127718133166166 -34.160236265865876
36
root -5.647342379384094 18.180551663535223 -0.9571401489592096 -185.0031154214146 46.44372485682704 -192.52270758917072
lfemur -14.760226738236472 -0.08034505349919518 -22.838557878046952
ltibia 9.473131574321414
lfoot 3.1810398451429682 -30.035173672523843
ltoes 4.0639973965640905
rfemur -8.014966257403758 -3.8900006983339837 2.8675309505631255
rtibia 36.232091266640225
rfoot -2.0189500631642936 -34.88044672989413
rtoes 16.688393450715164
lowerback -8.64166601582225 -2.283148566054809 4.787093387080757
upperback 1.813811802996856 -3.161469679019956 12.85635894598909
thorax 7.290256389005369 -1.3735968604445665 10.674590293788743
lowerneck -7.997029102974692 -12.760669466528904 -4.613602499879799
upperneck 29.658039883046246 -11.796953867662237 -12.050120422818015
head 9.67387521343417 -6.319651895002458 -4.136894881923226
lclavicle 1.1092433915559802e-14 -4.808872222742851e-15
lhumerus 16.815549255429225 -42.762947462453326 96.2348066458432
lradius 19.433132676128064
lwrist 23.253625072075536
lhand 4.332325510031435 58.84548731647946
lfingers 7.12502
lthumb -150.2985215771634 69.25883029528171
rclavicle 1.1092433915559802e-14 -4.808872222742851e-15
rhumerus 2.0916577014575495 10.469411179591267 -91.94599918350177
rradius 28.8888013607681
rwrist -53.8052221448831
rhand -24.804146000688217 -10.240168340416616
rfingers 7.12502
rthumb 1.6925165703753713 -38.4323397840173
